<svg width="89" height="124" viewBox="0 0 89 124" fill="none" xmlns="http://www.w3.org/2000/svg">
<path d="M3.60908 31.1361C3.60908 48.7525 13.205 58.3803 35.0371 61.6701L53.2679 64.2536C72.6991 67.3055 80.8553 75.0561 80.8553 90.3231C80.8553 107.233 68.6191 117.099 47.5088 117.099C24.8545 117.099 10.3872 106.855 7.20274 84.427L0 85.156C3.46241 110.666 20.3306 123.203 47.0301 123.203C72.6991 123.203 88.0542 110.519 88.0542 89.6168C88.0542 71.7663 78.2189 61.6663 55.9081 58.1461L36.7163 55.3284C18.4855 52.5107 10.808 45.2284 10.808 30.902C10.808 15.4008 23.0441 6.24135 43.6758 6.24135C64.5468 6.24135 77.5009 14.9324 79.9019 38.1842L87.1007 37.4816C84.943 11.178 68.6268 0.137574 43.919 0.137574C18.7248 0.133797 3.60908 11.6426 3.60908 31.1361Z" fill="#11BCA5"/>
</svg>
