<svg width="107" height="183" viewBox="0 0 107 183" fill="none" xmlns="http://www.w3.org/2000/svg">
<path d="M6.95958 148.005C6.95958 136.965 13.9153 128.278 27.1126 124.754C29.2704 124.988 31.6713 125.226 34.0683 125.226H69.8119C89.0038 125.226 98.839 132.976 98.839 148.243C98.839 167.03 84.4451 176.896 53.4957 176.896C24.2331 176.892 6.95958 167.027 6.95958 148.005ZM15.8375 53.121C15.8375 33.3932 29.7528 20.0072 50.6238 20.0072C71.2555 20.0072 85.4101 33.3932 85.4101 53.121C85.4101 72.3804 71.2555 85.7664 50.6238 85.7664C29.749 85.7664 15.8375 72.3804 15.8375 53.121ZM100.788 0.13975C84.9276 1.26532 77.501 7.40688 73.8996 19.8562C67.4225 16.3321 59.4941 14.1339 50.62 14.1339C25.669 14.1339 8.63867 30.1034 8.63867 53.121C8.63867 65.8045 13.9153 76.1386 22.7933 82.9487C12.4794 86.4727 5.99845 93.9853 5.99845 103.851C5.99845 112.776 11.5182 119.821 20.871 123.11C7.43821 127.103 0 136.496 0 148.946C0 170.082 17.9915 183 52.7777 183C88.0426 183 106.034 170.789 106.034 148.005C106.034 129.452 94.0372 118.884 71.0085 118.884H34.0645C20.871 118.884 12.9541 112.308 12.9541 102.442C12.9541 94.6916 18.9526 88.1157 26.8694 85.7664C33.3465 89.5246 41.5027 91.6397 50.62 91.6397C75.3317 91.6397 92.3619 75.9044 92.3619 53.121C92.3619 40.2033 86.9657 29.0685 77.6978 22.3377C80.5774 11.7694 87.8651 6.78743 100.634 5.78272C103.61 5.54854 105.795 5.64297 105.795 5.64297V0.0188808C105.795 0.0188808 105.37 0 104.625 0C103.745 0 102.41 0.0264378 100.788 0.13975Z" fill="#0040C4"/>
</svg>
