<svg width="99" height="124" viewBox="0 0 99 124" fill="none" xmlns="http://www.w3.org/2000/svg">
<path d="M49.6588 6.00349C76.0496 6.00349 91.1615 24.0882 91.1615 55.0905V55.3247H7.19889C7.67752 25.735 24.4685 6.00349 49.6588 6.00349ZM0 60.7259C0 101.356 18.2308 123.199 51.8204 123.199C75.5671 123.199 93.3192 108.638 97.8817 85.1561L91.2425 84.4914C86.7379 104.929 72.4405 116.627 51.8204 116.857C23.7506 117.091 7.43821 97.1295 7.19889 61.4285H98.5997V57.6703C98.5997 20.3262 81.0869 0.130127 49.6588 0.130127C19.1919 0.133904 0 23.3857 0 60.7259Z" fill="#F1C322"/>
</svg>
