<svg width="171" height="100" viewBox="0 0 171 100" fill="none" xmlns="http://www.w3.org/2000/svg">
<path d="M145.027 32.3847L164.371 17.519L170.822 17.5208L168.244 14.9325H164.371L145.027 0.0720215H138.582L151.479 14.9325H138.64V17.519H151.479L138.582 32.3847H145.027Z" fill="#0040C4"/>
<path d="M89.6303 83.2251C89.6303 78.1304 92.765 74.1216 98.7126 72.4954C99.6851 72.6035 100.767 72.7133 101.847 72.7133H117.956C126.605 72.7133 131.038 76.2898 131.038 83.3349C131.038 92.0043 124.551 96.5569 110.603 96.5569C97.4149 96.5552 89.6303 92.0026 89.6303 83.2251ZM93.6313 39.4402C93.6313 30.3367 99.9025 24.1597 109.308 24.1597C118.607 24.1597 124.986 30.3367 124.986 39.4402C124.986 48.3276 118.607 54.5046 109.308 54.5046C99.9008 54.5046 93.6313 48.3276 93.6313 39.4402ZM131.916 14.9917C124.768 15.5111 121.421 18.3452 119.798 24.09C116.879 22.4638 113.306 21.4494 109.307 21.4494C98.062 21.4494 90.387 28.8186 90.387 39.4402C90.387 45.2931 92.765 50.0618 96.766 53.2044C92.1179 54.8305 89.1971 58.2973 89.1971 62.8499C89.1971 66.9685 91.6847 70.2191 95.8997 71.7372C89.846 73.5795 86.4938 77.9143 86.4938 83.6591C86.4938 93.4126 94.602 99.3736 110.279 99.3736C126.172 99.3736 134.28 93.7386 134.28 83.2251C134.28 74.6637 128.874 69.7868 118.495 69.7868H101.846C95.8997 69.7868 92.3318 66.7524 92.3318 62.1998C92.3318 58.6232 95.0351 55.5887 98.603 54.5046C101.522 56.2388 105.198 57.2149 109.307 57.2149C120.444 57.2149 128.119 49.9537 128.119 39.4402C128.119 33.4793 125.687 28.341 121.51 25.2351C122.808 20.3583 126.092 18.0593 131.847 17.5957C133.188 17.4877 134.172 17.5312 134.172 17.5312V14.936C134.172 14.936 133.981 14.9272 133.645 14.9272C133.249 14.9272 132.647 14.9394 131.916 14.9917Z" fill="url(#paint0_linear_1_5)"/>
<path d="M48.4961 35.7556C48.4961 43.8848 52.8207 48.3276 62.6598 49.8457L70.8758 51.0379C79.6329 52.4462 83.3086 56.0227 83.3086 63.0677C83.3086 70.871 77.7942 75.4236 68.2804 75.4236C58.0708 75.4236 51.5508 70.6967 50.1157 60.347L46.8696 60.6834C48.43 72.4553 56.032 78.2402 68.0647 78.2402C79.6329 78.2402 86.553 72.3873 86.553 62.7418C86.553 54.5046 82.1205 49.8439 72.0657 48.2195L63.4165 46.9193C55.2005 45.619 51.7404 42.2586 51.7404 35.6476C51.7404 28.4945 57.2549 24.2678 66.553 24.2678C75.9589 24.2678 81.7969 28.2783 82.879 39.008L86.1233 38.6838C85.1509 26.5458 77.7976 21.4512 66.6626 21.4512C55.3083 21.4494 48.4961 26.7602 48.4961 35.7556Z" fill="url(#paint1_linear_1_5)"/>
<path d="M22.3797 24.1579C34.2733 24.1579 41.0838 32.5032 41.0838 46.8094V46.9175H3.24432C3.46003 33.2631 11.0272 24.1579 22.3797 24.1579ZM0 49.4099C0 68.1589 8.21606 78.2384 23.3539 78.2384C34.0558 78.2384 42.0562 71.5193 44.1124 60.6833L41.1203 60.3766C39.0902 69.8077 32.6468 75.2057 23.3539 75.312C10.7037 75.42 3.35218 66.2085 3.24432 49.7341H44.4359V47.9998C44.4359 30.7672 36.5434 21.4476 22.3797 21.4476C8.64921 21.4494 0 32.179 0 49.4099Z" fill="url(#paint2_linear_1_5)"/>
<defs>
<linearGradient id="paint0_linear_1_5" x1="86.495" y1="57.1502" x2="134.282" y2="57.1502" gradientUnits="userSpaceOnUse">
<stop stop-color="#11BCA5"/>
<stop offset="0.175" stop-color="#0D9CAD"/>
<stop offset="0.4254" stop-color="#0774B7"/>
<stop offset="0.6549" stop-color="#0358BE"/>
<stop offset="0.8539" stop-color="#0146C2"/>
<stop offset="1" stop-color="#0040C4"/>
</linearGradient>
<linearGradient id="paint1_linear_1_5" x1="46.8709" y1="49.8442" x2="86.5532" y2="49.8442" gradientUnits="userSpaceOnUse">
<stop offset="0.9138" stop-color="#11BCA5"/>
<stop offset="0.9702" stop-color="#11BCA5"/>
</linearGradient>
<linearGradient id="paint2_linear_1_5" x1="1.73958e-05" y1="49.8442" x2="44.4357" y2="49.8442" gradientUnits="userSpaceOnUse">
<stop stop-color="#F1BD22"/>
<stop offset="0.1" stop-color="#EBBD26"/>
<stop offset="0.2363" stop-color="#D9BD30"/>
<stop offset="0.3936" stop-color="#BDBD41"/>
<stop offset="0.5666" stop-color="#95BD58"/>
<stop offset="0.7524" stop-color="#61BC76"/>
<stop offset="0.9461" stop-color="#24BC9A"/>
<stop offset="1" stop-color="#11BCA5"/>
</linearGradient>
</defs>
</svg>
